<?xml version="1.0" encoding="UTF-8"?>
<svg version="1.1" xmlns="http://www.w3.org/2000/svg" width="500" height="500">
<path d="M0 0 C0.86141602 0.03577148 1.72283203 0.07154297 2.61035156 0.10839844 C49.39737784 2.39191201 90.33522086 22.12331733 124 54 C124.93070312 54.8765625 125.86140625 55.753125 126.8203125 56.65625 C161.14356323 89.9038433 179.60744526 136.67034065 181.09375 183.984375 C181.12776213 186.99444821 181.08020272 189.99065443 181 193 C180.97317139 194.0825708 180.97317139 194.0825708 180.94580078 195.18701172 C179.51206582 246.68635292 157.39839101 292.9593694 120.59375 328.65234375 C83.69033051 363.55317487 33.79697163 380.28254728 -16.49414062 379.08886719 C-55.53618473 377.70428963 -94.75768704 363.96814335 -125 339 C-125.78761719 338.39542969 -126.57523437 337.79085938 -127.38671875 337.16796875 C-162.20629969 309.94727991 -184.16236192 271.71606009 -194 229 C-194.21172852 228.0939502 -194.42345703 227.18790039 -194.64160156 226.25439453 C-200.70938071 199.17055941 -199.85086606 170.80920717 -193 144 C-192.80245117 143.19481934 -192.60490234 142.38963867 -192.40136719 141.56005859 C-184.92101707 111.56760125 -169.29437178 82.71210232 -147.63769531 60.66845703 C-145.86654781 58.8640411 -144.11755541 57.03941104 -142.3671875 55.21484375 C-118.10711211 30.17076902 -87.63067765 13.81600368 -54 5 C-52.7521875 4.66355469 -51.504375 4.32710938 -50.21875 3.98046875 C-34.00558237 0.06228657 -16.6280232 -0.69934111 0 0 Z " fill="#E2EDFC" transform="translate(262,60)"/>
<path d="M0 0 C1.98 0.33 3.96 0.66 6 1 C4.44509041 9.84398278 2.68724982 18.64334436 0.875 27.4375 C0.72382721 28.17230591 0.57265442 28.90711182 0.41690063 29.66418457 C-2.20014369 42.36142552 -4.96919668 55.02119008 -7.80273438 67.67163086 C-10.62406292 80.27090815 -13.38538023 92.88271104 -16.125 105.5 C-16.33764496 106.47910339 -16.55028992 107.45820679 -16.76937866 108.46697998 C-20.20796549 124.3052495 -23.62278173 140.14852347 -27 156 C-28.98 156 -30.96 156 -33 156 C-31.27486499 141.14324033 -27.74311235 126.66669095 -24.43359375 112.1015625 C-23.8722179 109.63024874 -23.31102638 107.15889311 -22.75 104.6875 C-22.60475891 104.04822571 -22.45951782 103.40895142 -22.30987549 102.75030518 C-19.28467331 89.41938769 -16.41878069 76.05582047 -13.56762695 62.68676758 C-10.55751856 48.57555823 -7.50645342 34.47352515 -4.4375 20.375 C-4.21363617 19.34639862 -3.98977234 18.31779724 -3.75912476 17.25802612 C-2.50694815 11.50516209 -1.25388978 5.75249086 0 0 Z " fill="#443835" transform="translate(267,172)"/>
<path d="M0 0 C3.37632331 1.46801828 5.6188929 3.35100248 8.23364258 5.92724609 C9.05741898 6.7350351 9.88119537 7.5428241 10.72993469 8.37509155 C11.60925156 9.24904572 12.48856842 10.12299988 13.39453125 11.0234375 C14.75465584 12.37001938 14.75465584 12.37001938 16.14225769 13.74380493 C18.05555303 15.64259757 19.96628824 17.54365053 21.8737793 19.44824219 C24.32132955 21.89038879 26.78465644 24.31594043 29.25217152 26.73789024 C31.6022951 29.05118765 33.9347403 31.38218148 36.26953125 33.7109375 C37.15896927 34.5808432 38.04840729 35.4507489 38.96479797 36.34701538 C39.77281357 37.1611087 40.58082916 37.97520203 41.41333008 38.81396484 C42.13184647 39.52741058 42.85036285 40.24085632 43.59065247 40.97592163 C45 43 45 43 44.972229 44.99227905 C43.70485811 47.60948865 42.09850774 49.26058337 40.03100586 51.30957031 C39.19020981 52.15013977 38.34941376 52.99070923 37.48313904 53.85675049 C36.11283287 55.20383087 36.11283287 55.20383087 34.71484375 56.578125 C33.78402481 57.5046991 32.85320587 58.43127319 31.8941803 59.38592529 C29.42326879 61.84539987 26.94348031 64.29573101 24.46173096 66.7442627 C21.92934747 69.24592051 19.4054687 71.75612622 16.88085938 74.265625 C11.92886047 79.18548013 6.96743051 84.09572753 2 89 C0.35 88.01 -1.3 87.02 -3 86 C-1.58098338 82.77254476 0.12855765 80.62741893 2.62353516 78.14941406 C3.36415192 77.40894836 4.10476868 76.66848267 4.86782837 75.90557861 C5.66683563 75.11689392 6.4658429 74.32820923 7.2890625 73.515625 C8.51669815 72.29223419 8.51669815 72.29223419 9.76913452 71.04412842 C12.38309973 68.44135438 15.00393505 65.84562238 17.625 63.25 C19.39889454 61.4861366 21.17233766 59.7218191 22.9453125 57.95703125 C27.29165142 53.63273864 31.64365081 49.3142067 36 45 C34.58098338 41.77254476 32.87144235 39.62741893 30.37646484 37.14941406 C29.63584808 36.40894836 28.89523132 35.66848267 28.13217163 34.90557861 C27.33316437 34.11689392 26.5341571 33.32820923 25.7109375 32.515625 C24.48330185 31.29223419 24.48330185 31.29223419 23.23086548 30.04412842 C20.61690027 27.44135438 17.99606495 24.84562238 15.375 22.25 C13.60110546 20.4861366 11.82766234 18.7218191 10.0546875 16.95703125 C5.70834858 12.63273864 1.35634919 8.3142067 -3 4 C-2.01 2.68 -1.02 1.36 0 0 Z " fill="#3E322F" transform="translate(297,206)"/>
<path d="M0 0 C1.32 0.66 2.64 1.32 4 2 C3.42447318 5.62915416 2.08924434 7.25838721 -0.52587891 9.78710938 C-1.26979889 10.51466431 -2.01371887 11.24221924 -2.78018188 11.99182129 C-3.99114029 13.156026 -3.99114029 13.156026 -5.2265625 14.34375 C-6.9143115 15.99844398 -8.60180377 17.65339985 -10.2890625 19.30859375 C-12.96247908 21.91352436 -15.63976543 24.51428697 -18.32226562 27.10986328 C-20.90521677 29.61464368 -23.47280568 32.13438511 -26.0390625 34.65625 C-26.85041656 35.43238647 -27.66177063 36.20852295 -28.49771118 37.00817871 C-29.23532684 37.73573364 -29.9729425 38.46328857 -30.73291016 39.21289062 C-31.38941559 39.84924438 -32.04592102 40.48559814 -32.72232056 41.14123535 C-34.20296846 42.89870351 -34.20296846 42.89870351 -33.92356873 44.99603271 C-32.7882908 47.45936843 -31.41930666 48.94088968 -29.48999023 50.85058594 C-28.74929794 51.59105164 -28.00860565 52.33151733 -27.24546814 53.09442139 C-26.44129959 53.88310608 -25.63713104 54.67179077 -24.80859375 55.484375 C-23.98875504 56.29996887 -23.16891632 57.11556274 -22.32423401 57.95587158 C-19.70227238 60.56103106 -17.07007552 63.15557079 -14.4375 65.75 C-12.65882155 67.51363369 -10.88081808 69.2779484 -9.10351562 71.04296875 C-4.7434806 75.36991403 -0.37499473 79.68818398 4 84 C3.34 85.32 2.68 86.64 2 88 C-1 88 -1 88 -2.99320984 86.36755371 C-3.75043839 85.60366333 -4.50766693 84.83977295 -5.2878418 84.05273438 C-6.14850754 83.19184204 -7.00917328 82.33094971 -7.8959198 81.44396973 C-8.82100845 80.50339722 -9.74609711 79.56282471 -10.69921875 78.59375 C-11.65834646 77.62902751 -12.61813837 76.66496495 -13.5785675 75.70153809 C-16.10544794 73.16319954 -18.62319076 70.61598117 -21.13916016 68.0668335 C-23.70777661 65.46753702 -26.28489941 62.87670527 -28.86132812 60.28515625 C-33.91593433 55.19836885 -38.96092091 50.10217428 -44 45 C-39.31179066 39.36431339 -34.30014592 34.16896034 -29.1015625 29.00390625 C-28.26660248 28.17036118 -27.43164246 27.3368161 -26.57138062 26.47801208 C-23.92494152 23.83713476 -21.27503241 21.19977104 -18.625 18.5625 C-16.82138357 16.76390351 -15.01799575 14.96507773 -13.21484375 13.16601562 C-8.81253739 8.77468752 -4.40738286 4.38623271 0 0 Z " fill="#40332F" transform="translate(208,206)"/>
<path d="M0 0 C0.69738281 0.00902344 1.39476562 0.01804687 2.11328125 0.02734375 C3.82566958 0.05080112 5.53788004 0.08666896 7.25 0.125 C7.96645099 3.9723982 8.365367 7.58784173 8.3125 11.5 C8.30347656 12.37398438 8.29445313 13.24796875 8.28515625 14.1484375 C8.27355469 14.80070312 8.26195312 15.45296875 8.25 16.125 C4.72337274 18.04861487 2.30009412 18.4771821 -1.75 18.125 C-3.75 16.125 -3.75 16.125 -3.875 13.5 C-3.83375 12.71625 -3.7925 11.9325 -3.75 11.125 C-5.68109581 11.08210245 -5.68109581 11.08210245 -7.75 12.125 C-8.1625 13.28 -8.575 14.435 -9 15.625 C-10.75 19.125 -10.75 19.125 -12.71484375 19.80859375 C-14.9375 20.0625 -14.9375 20.0625 -18.75 20.125 C-18.74097656 19.54492188 -18.73195312 18.96484375 -18.72265625 18.3671875 C-18.90594977 13.38627259 -18.90594977 13.38627259 -21.375 9.19140625 C-23.09464384 7.7456573 -24.91734663 6.42451784 -26.75 5.125 C-26.75 9.745 -26.75 14.365 -26.75 19.125 C-27.41 19.125 -28.07 19.125 -28.75 19.125 C-28.75 13.515 -28.75 7.905 -28.75 2.125 C-23.97620248 3.31844938 -22.36425291 4.92145765 -18.75 8.125 C-18.42 6.145 -18.09 4.165 -17.75 2.125 C-17.09 2.125 -16.43 2.125 -15.75 2.125 C-15.42 3.115 -15.09 4.105 -14.75 5.125 C-14.3375 4.67125 -13.925 4.2175 -13.5 3.75 C-9.35630098 -0.09772052 -5.4650912 -0.13430281 0 0 Z " fill="#DFE8F7" transform="translate(265.75,393.875)"/>
<path d="M0 0 C0.495 1.98 0.495 1.98 1 4 C2.32 4.33 3.64 4.66 5 5 C-7.87 17.87 -20.74 30.74 -34 44 C-35.65 43.01 -37.3 42.02 -39 41 C-37.58098338 37.77254476 -35.87144235 35.62741893 -33.37646484 33.14941406 C-32.63584808 32.40894836 -31.89523132 31.66848267 -31.13217163 30.90557861 C-30.33316437 30.11689392 -29.5341571 29.32820923 -28.7109375 28.515625 C-27.89251373 27.70003113 -27.07408997 26.88443726 -26.23086548 26.04412842 C-23.61690027 23.44135438 -20.99606495 20.84562238 -18.375 18.25 C-16.60110546 16.4861366 -14.82766234 14.7218191 -13.0546875 12.95703125 C-8.70834858 8.63273864 -4.35634919 4.3142067 0 0 Z " fill="#4B4141" transform="translate(333,251)"/>
<path d="M0 0 C0.74765625 0.22816406 1.4953125 0.45632813 2.265625 0.69140625 C3.25046875 0.97886719 4.2353125 1.26632812 5.25 1.5625 C6.22453125 1.85253906 7.1990625 2.14257812 8.203125 2.44140625 C10.96243932 2.99249836 12.3912824 2.93789609 15 2 C15.6875 4.8125 15.6875 4.8125 16 8 C14.5625 9.875 14.5625 9.875 13 11 C13.309375 11.5775 13.61875 12.155 13.9375 12.75 C14.92583364 14.84294184 15.5168613 16.74535275 16 19 C13 21 13 21 10 22 C7 18.25 7 18.25 7 16 C6.28972656 15.82984375 5.57945312 15.6596875 4.84765625 15.484375 C3.92855469 15.24203125 3.00945312 14.9996875 2.0625 14.75 C1.14597656 14.51796875 0.22945313 14.2859375 -0.71484375 14.046875 C-1.46894531 13.70140625 -2.22304688 13.3559375 -3 13 C-3.33 11.68 -3.66 10.36 -4 9 C-0.04 6.525 -0.04 6.525 4 4 C2.68 3.34 1.36 2.68 0 2 C0 1.34 0 0.68 0 0 Z " fill="#D0DAF0" transform="translate(391,295)"/>
<path d="M0 0 C4.17053245 1.57553448 7.37223111 4.27101631 10.8125 7.0625 C10.35550722 12.08942063 7.82008252 15.21146261 4.8125 19.0625 C-0.11804827 16.34566728 -4.65034362 13.39592102 -9.1875 10.0625 C-3.74007393 0.10685926 -3.74007393 0.10685926 0 0 Z " fill="#4F4443" transform="translate(119.1875,156.9375)"/>
<path d="M0 0 C3.72255989 1.49192089 5.87994301 4.50071123 8.0078125 7.8046875 C8.8203125 10.8671875 8.8203125 10.8671875 8.0078125 13.8046875 C5.9553702 16.22635222 3.79745017 18.26949075 1.0078125 19.8046875 C-2.92896176 18.49242941 -3.8193657 16.6085481 -6.1796875 13.2421875 C-7.25283203 11.72431641 -7.25283203 11.72431641 -8.34765625 10.17578125 C-8.89035156 9.39332031 -9.43304688 8.61085937 -9.9921875 7.8046875 C-8.16851293 3.67970931 -4.99215059 -0.48942653 0 0 Z " fill="#433B39" transform="translate(154.9921875,121.1953125)"/>
<path d="M0 0 C0.78503906 0.00515625 1.57007813 0.0103125 2.37890625 0.015625 C3.55259766 0.00789063 3.55259766 0.00789063 4.75 0 C6.94140625 0.265625 6.94140625 0.265625 9.94140625 2.265625 C10.43505604 7.30085285 9.64921407 11.52171439 7.94140625 16.265625 C4.92272191 17.77496717 2.26843396 17.44073172 -1.05859375 17.265625 C-2.04859375 16.605625 -3.03859375 15.945625 -4.05859375 15.265625 C-4.421875 12.296875 -4.421875 12.296875 -4.37109375 8.765625 C-4.36722656 7.6003125 -4.36335938 6.435 -4.359375 5.234375 C-4.01472036 1.83258895 -3.5472463 0.4577092 0 0 Z " fill="#544C4D" transform="translate(268.05859375,88.734375)"/>
<path d="M0 0 C5.13599156 0.7612117 7.22662093 2.57763294 11 6 C10.25 10.75 10.25 10.75 8 13 C6.68 13 5.36 13 4 13 C4 15.31 4 17.62 4 20 C3.01 19.67 2.02 19.34 1 19 C0.67 16.36 0.34 13.72 0 11 C-2.24362573 10.7715451 -2.24362573 10.7715451 -4.125 13 C-4.74375 13.66 -5.3625 14.32 -6 15 C-6.71484375 13.359375 -6.71484375 13.359375 -7 11 C-5.56640625 8.203125 -5.56640625 8.203125 -3.5625 5.25 C-2.90378906 4.26515625 -2.24507813 3.2803125 -1.56640625 2.265625 C-1.04949219 1.51796875 -0.53257812 0.7703125 0 0 Z " fill="#474243" transform="translate(338,111)"/>
<path d="M0 0 C0.66 0 1.32 0 2 0 C3.17154293 2.28929053 4.33738074 4.58118362 5.5 6.875 C6.00080078 7.85146484 6.00080078 7.85146484 6.51171875 8.84765625 C9 13.7734375 9 13.7734375 9 16 C7.02 16 5.04 16 3 16 C2.67 15.34 2.34 14.68 2 14 C1.01 16.31 0.02 18.62 -1 21 C-1.66 21 -2.32 21 -3 21 C-5.31 15.72 -7.62 10.44 -10 5 C-5.03429151 3.75857288 -2.84452938 4.62738334 2 6 C1.34 4.02 0.68 2.04 0 0 Z " fill="#D4DEEF" transform="translate(315,380)"/>
<path d="M0 0 C0 1.32 0 2.64 0 4 C-2.64 4.33 -5.28 4.66 -8 5 C-8 5.99 -8 6.98 -8 8 C-3.545 7.505 -3.545 7.505 1 7 C1 8.32 1 9.64 1 11 C-1.64 11.33 -4.28 11.66 -7 12 C-7 12.99 -7 13.98 -7 15 C-3.7 14.67 -0.4 14.34 3 14 C3 14.99 3 15.98 3 17 C-1.53701494 18.45184478 -5.18061476 19.23509196 -10 19 C-11.2982126 13.23918159 -12.25706972 7.91260345 -12 2 C-10.37548581 1.66430703 -8.75037083 1.3315204 -7.125 1 C-6.22007812 0.814375 -5.31515625 0.62875 -4.3828125 0.4375 C-2 0 -2 0 0 0 Z " fill="#4A4443" transform="translate(226,90)"/>
<path d="M0 0 C-0.125 1.8125 -0.125 1.8125 -1 4 C-4.0625 5.75 -4.0625 5.75 -7 7 C-7 7.99 -7 8.98 -7 10 C-5.906875 9.319375 -4.81375 8.63875 -3.6875 7.9375 C-1.82421875 6.77734375 -1.82421875 6.77734375 0 6 C0.99 6.33 1.98 6.66 3 7 C2.67 7.99 2.34 8.98 2 10 C-1.0625 11.1875 -1.0625 11.1875 -4 12 C-3.01 13.485 -3.01 13.485 -2 15 C-1.2575 14.484375 -0.515 13.96875 0.25 13.4375 C3 12 3 12 5.3125 12.3125 C5.869375 12.539375 6.42625 12.76625 7 13 C7 13.66 7 14.32 7 15 C5.56705502 15.84114171 4.12845595 16.67265687 2.6875 17.5 C1.88699219 17.9640625 1.08648437 18.428125 0.26171875 18.90625 C-2 20 -2 20 -5 20 C-6.82421875 17.48046875 -6.82421875 17.48046875 -8.6875 14.1875 C-9.62142578 12.56908203 -9.62142578 12.56908203 -10.57421875 10.91796875 C-12 8 -12 8 -12 5 C-10.56705502 4.15885829 -9.12845595 3.32734313 -7.6875 2.5 C-6.88699219 2.0359375 -6.08648437 1.571875 -5.26171875 1.09375 C-3 0 -3 0 0 0 Z " fill="#463B3A" transform="translate(178,107)"/>
<path d="M0 0 C4.23429756 1.31061591 8.07407404 2.94356259 12 5 C11.67 5.99 11.34 6.98 11 8 C6.545 7.01 6.545 7.01 2 6 C1.67 6.66 1.34 7.32 1 8 C2.7015625 8.433125 2.7015625 8.433125 4.4375 8.875 C5.613125 9.24625 6.78875 9.6175 8 10 C8.33 10.66 8.66 11.32 9 12 C8.67 12.66 8.34 13.32 8 14 C5.03 13.01 2.06 12.02 -1 11 C-0.67 11.99 -0.34 12.98 0 14 C3.50294871 15.71567661 3.50294871 15.71567661 7 17 C6.67 17.99 6.34 18.98 6 20 C1.61110675 19.33501617 -1.9811485 17.81242323 -6 16 C-4.25192871 10.53262809 -2.34205919 5.24175152 0 0 Z " fill="#463F40" transform="translate(315,99)"/>
<path d="M0 0 C4.3177458 0.50797009 8.03302114 1.19682779 12 3 C12.125 6.375 12.125 6.375 12 10 C11.34 10.66 10.68 11.32 10 12 C3.91304348 11.45652174 3.91304348 11.45652174 1 10 C0.67 11.98 0.34 13.96 0 16 C-0.99 16 -1.98 16 -3 16 C-3.45496035 10.23716896 -1.79099852 5.39431697 0 0 Z " fill="#42393B" transform="translate(290,92)"/>
<path d="M0 0 C5 1.66666667 10 3.33333333 15 5 C15 6.32 15 7.64 15 9 C13.02 9.99 13.02 9.99 11 11 C11.66 11.66 12.32 12.32 13 13 C12.67 14.32 12.34 15.64 12 17 C6.72 16.01 1.44 15.02 -4 14 C-4 12.68 -4 11.36 -4 10 C-0.7 10.33 2.6 10.66 6 11 C6 10.01 6 9.02 6 8 C6.66 8 7.32 8 8 8 C8 7.34 8 6.68 8 6 C7.2575 5.87625 6.515 5.7525 5.75 5.625 C3.19858515 5.04513299 1.2732427 4.26291261 -1 3 C-0.67 2.01 -0.34 1.02 0 0 Z " fill="#483F3C" transform="translate(93,201)"/>
<path d="M0 0 C0.99 0 1.98 0 3 0 C2.33333333 3.33333333 1.66666667 6.66666667 1 10 C1.66 10.33 2.32 10.66 3 11 C3.37125 9.5459375 3.37125 9.5459375 3.75 8.0625 C4.1625 7.051875 4.575 6.04125 5 5 C6.32 4.67 7.64 4.34 9 4 C8.34 6.97 7.68 9.94 7 13 C7.66 13.33 8.32 13.66 9 14 C9.309375 13.05125 9.61875 12.1025 9.9375 11.125 C11 8 11 8 12 6 C12.99 6 13.98 6 15 6 C14.33501617 10.38889325 12.81242323 13.9811485 11 18 C7.21193549 17.39363716 4.17104296 16.28838544 0.75 14.5625 C-0.12140625 14.13066406 -0.9928125 13.69882813 -1.890625 13.25390625 C-4 12 -4 12 -5 10 C-4.00390625 7.6171875 -4.00390625 7.6171875 -2.5625 4.875 C-1.85287109 3.50988281 -1.85287109 3.50988281 -1.12890625 2.1171875 C-0.75636719 1.41851562 -0.38382812 0.71984375 0 0 Z " fill="#473D3C" transform="translate(103,178)"/>
<path d="M0 0 C1.32 0 2.64 0 4 0 C5.85131483 3.92857754 6.22004943 6.98775112 6.125 11.3125 C6.10695312 12.38113281 6.08890625 13.44976562 6.0703125 14.55078125 C6.03550781 15.76314453 6.03550781 15.76314453 6 17 C3.69 17.33 1.38 17.66 -1 18 C-2.15700194 16.61341021 -3.30017623 15.21527559 -4.4375 13.8125 C-5.07558594 13.03519531 -5.71367187 12.25789063 -6.37109375 11.45703125 C-8.07176557 8.89174929 -8.61830031 7.02671729 -9 4 C-8.01 3.67 -7.02 3.34 -6 3 C-5.59007812 3.71027344 -5.18015625 4.42054687 -4.7578125 5.15234375 C-4.21898437 6.07144531 -3.68015625 6.99054688 -3.125 7.9375 C-2.59132812 8.85402344 -2.05765625 9.77054688 -1.5078125 10.71484375 C-0.20287437 13.10700296 -0.20287437 13.10700296 2 14 C1.85795259 12.41632253 1.71119847 10.83306682 1.5625 9.25 C1.48128906 8.36828125 1.40007812 7.4865625 1.31640625 6.578125 C1.03761535 4.30649548 0.61209423 2.20148177 0 0 Z " fill="#4C4343" transform="translate(198,97)"/>
<path d="M0 0 C1.32 0 2.64 0 4 0 C4.33 0.66 4.66 1.32 5 2 C5.598125 1.67 6.19625 1.34 6.8125 1 C9 0 9 0 12 0 C11.34 1.98 10.68 3.96 10 6 C10.99 6.33 11.98 6.66 13 7 C13.28875 6.360625 13.5775 5.72125 13.875 5.0625 C15 3 15 3 17 2 C17.33 2.99 17.66 3.98 18 5 C17.00390625 6.82421875 17.00390625 6.82421875 15.5625 8.6875 C15.08941406 9.31011719 14.61632812 9.93273437 14.12890625 10.57421875 C13.75636719 11.04472656 13.38382813 11.51523438 13 12 C8.06945173 9.28316728 3.53715638 6.33342102 -1 3 C-0.67 2.01 -0.34 1.02 0 0 Z " fill="#443938" transform="translate(111,164)"/>
<path d="M0 0 C1.98 0.66 3.96 1.32 6 2 C6 2.99 6 3.98 6 5 C6.37837892 10.15820589 6.37837892 10.15820589 8 15 C5.03 16.32 2.06 17.64 -1 19 C-1.33 17.68 -1.66 16.36 -2 15 C-0.02 14.01 1.96 13.02 4 12 C4 11.34 4 10.68 4 10 C3.2575 10.309375 2.515 10.61875 1.75 10.9375 C-0.50692176 11.8094925 -2.6450153 12.47667007 -5 13 C-5.33 12.01 -5.66 11.02 -6 10 C-4.865625 9.4225 -3.73125 8.845 -2.5625 8.25 C0.37310297 6.64507365 0.37310297 6.64507365 1.9375 3.75 C1.958125 3.1725 1.97875 2.595 2 2 C1.01 1.67 0.02 1.34 -1 1 C-0.67 0.67 -0.34 0.34 0 0 Z " fill="#E6E8ED" transform="translate(176,104)"/>
<path d="M0 0 C3.34373475 0.55728913 6.03312999 1.35173889 9 3 C9.33 2.01 9.66 1.02 10 0 C12.9375 1.25 12.9375 1.25 16 3 C16.875 5.1875 16.875 5.1875 17 7 C18.32 6.67 19.64 6.34 21 6 C19.68 8.97 18.36 11.94 17 15 C16.67 15 16.34 15 16 15 C16 13.02 16 11.04 16 9 C15.360625 8.731875 14.72125 8.46375 14.0625 8.1875 C12 7 12 7 11 4 C11 4.99 11 5.98 11 7 C10.34 7 9.68 7 9 7 C8.67 7.99 8.34 8.98 8 10 C7.34 9.67 6.68 9.34 6 9 C6.66 8.01 7.32 7.02 8 6 C5.03 5.01 2.06 4.02 -1 3 C-0.67 2.01 -0.34 1.02 0 0 Z " fill="#D5DBEB" transform="translate(314,110)"/>
<path d="M0 0 C1.12862175 5.36095333 1.09688221 10.55306686 1 16 C-2.52662726 17.92361487 -4.94990588 18.3521821 -9 18 C-9.66 17.34 -10.32 16.68 -11 16 C-11 14.68 -11 13.36 -11 12 C-10.34 12 -9.68 12 -9 12 C-9 13.32 -9 14.64 -9 16 C-6.36 15.67 -3.72 15.34 -1 15 C-1.33 11.04 -1.66 7.08 -2 3 C-5.63 3.33 -9.26 3.66 -13 4 C-13 3.01 -13 2.02 -13 1 C-8.61414671 0.29826347 -4.44209357 -0.10834375 0 0 Z " fill="#4E4E55" transform="translate(273,394)"/>
<path d="M0 0 C4.77379752 1.19344938 6.38574709 2.79645765 10 6 C10.33 4.02 10.66 2.04 11 0 C11.66 0 12.32 0 13 0 C13 5.61 13 11.22 13 17 C12.34 17 11.68 17 11 17 C11 14.36 11 11.72 11 9 C10.443125 8.7525 9.88625 8.505 9.3125 8.25 C7 7 7 7 2 3 C2 7.62 2 12.24 2 17 C1.34 17 0.68 17 0 17 C0 11.39 0 5.78 0 0 Z " fill="#4F4E53" transform="translate(237,396)"/>
<path d="M0 0 C1.75 0.875 1.75 0.875 2.75 2.875 C1.6053125 2.7821875 1.6053125 2.7821875 0.4375 2.6875 C-2.25107239 2.65207618 -2.25107239 2.65207618 -4.125 4.125 C-5.49818863 5.84154233 -5.49818863 5.84154233 -4.9375 8.0625 C-4.710625 8.660625 -4.48375 9.25875 -4.25 9.875 C-1.78199953 8.72326645 -0.20216435 7.82716435 1.75 5.875 C4.1875 5.5 4.1875 5.5 6.75 5.875 C8.625 7.625 8.625 7.625 9.75 9.875 C9.75 13.02127039 8.70976686 13.91635073 6.5 16.1875 C3.75 17.875 3.75 17.875 0.9375 17.625 C0.215625 17.3775 -0.50625 17.13 -1.25 16.875 C-0.92 16.215 -0.59 15.555 -0.25 14.875 C0.554375 14.75125 1.35875 14.6275 2.1875 14.5 C4.90983399 14.14932836 4.90983399 14.14932836 6.0625 11.8125 C6.4028125 10.8534375 6.4028125 10.8534375 6.75 9.875 C4.91299211 9.10257731 4.91299211 9.10257731 2.75 8.875 C2.29625 9.349375 1.8425 9.82375 1.375 10.3125 C-0.25 11.875 -0.25 11.875 -3.3125 12.1875 C-6.25 11.875 -6.25 11.875 -8.25 9.875 C-8.16445192 5.93978831 -7.67158726 4.31937576 -4.9375 1.4375 C-2.25 -0.125 -2.25 -0.125 0 0 Z " fill="#494A54" transform="translate(354.25,354.125)"/>
<path d="M0 0 C2.31581759 0.78289575 4.62732941 1.57575731 6.9375 2.375 C7.59685547 2.59671875 8.25621094 2.8184375 8.93554688 3.046875 C13.88671875 4.7734375 13.88671875 4.7734375 15 7 C13.824375 6.7525 12.64875 6.505 11.4375 6.25 C6.48134633 5.58741261 4.03385747 7.22672299 0 10 C2.15266842 12.15266842 3.84773744 12.93474462 6.625 14.125 C7.85089844 14.65480469 7.85089844 14.65480469 9.1015625 15.1953125 C9.72804688 15.46085937 10.35453125 15.72640625 11 16 C11 16.66 11 17.32 11 18 C5.76727367 16.36041242 0.84803364 14.61047965 -4 12 C-4 11.01 -4 10.02 -4 9 C-2.25 7.61328125 -2.25 7.61328125 0 6.3125 C0.7425 5.87550781 1.485 5.43851562 2.25 4.98828125 C2.8275 4.66214844 3.405 4.33601563 4 4 C2.68 3.34 1.36 2.68 0 2 C0 1.34 0 0.68 0 0 Z " fill="#474753" transform="translate(391,295)"/>
<path d="M0 0 C0.66 0 1.32 0 2 0 C3.00460531 2.12282669 4.00355602 4.24833021 5 6.375 C5.556875 7.55835938 6.11375 8.74171875 6.6875 9.9609375 C8 13 8 13 8 15 C7.34 15 6.68 15 6 15 C5.67 14.05125 5.34 13.1025 5 12.125 C2.84049186 8.75076852 2.56814468 8.53750574 -1.0625 7.6875 C-2.361875 7.460625 -3.66125 7.23375 -5 7 C-5.66 6.67 -6.32 6.34 -7 6 C-6.62746094 6.75925781 -6.25492187 7.51851563 -5.87109375 8.30078125 C-5.39800781 9.29464844 -4.92492187 10.28851563 -4.4375 11.3125 C-3.96183594 12.29863281 -3.48617188 13.28476562 -2.99609375 14.30078125 C-2 17 -2 17 -3 20 C-4.19725883 17.71296692 -5.38297018 15.42115138 -6.5625 13.125 C-6.90474609 12.47402344 -7.24699219 11.82304687 -7.59960938 11.15234375 C-8.46082891 9.46470143 -9.23686703 7.73420407 -10 6 C-9.67 5.34 -9.34 4.68 -9 4 C-5.37 4.66 -1.74 5.32 2 6 C1.34 4.02 0.68 2.04 0 0 Z " fill="#4B4A52" transform="translate(315,380)"/>
<path d="M0 0 C0.66 0 1.32 0 2 0 C1.47462276 5.0302076 0.89405214 10.01885239 0 15 C2.64 15 5.28 15 8 15 C8.66 10.71 9.32 6.42 10 2 C10.66 2 11.32 2 12 2 C11.88487847 3.72985242 11.75744323 5.45888751 11.625 7.1875 C11.55539063 8.15042969 11.48578125 9.11335938 11.4140625 10.10546875 C10.99784147 13.01508938 10.20125904 15.32890774 9 18 C7.35369672 17.85957123 5.70795821 17.71250671 4.0625 17.5625 C2.68771484 17.44068359 2.68771484 17.44068359 1.28515625 17.31640625 C-1 17 -1 17 -2 16 C-1.93561368 13.6850193 -1.79849567 11.37186799 -1.625 9.0625 C-1.48964844 7.16177734 -1.48964844 7.16177734 -1.3515625 5.22265625 C-1 2 -1 2 0 0 Z " fill="#4F4D52" transform="translate(214,393)"/>
<path d="M0 0 C0.99 0 1.98 0 3 0 C3 4.62 3 9.24 3 14 C6.3 14 9.6 14 13 14 C13 14.99 13 15.98 13 17 C8.71 17 4.42 17 0 17 C0 11.39 0 5.78 0 0 Z " fill="#433A3A" transform="translate(240,88)"/>
<path d="M0 0 C0.66 0.33 1.32 0.66 2 1 C1.34 2.98 0.68 4.96 0 7 C2.95377498 9.36980013 2.95377498 9.36980013 7 9 C7.66 7.68 8.32 6.36 9 5 C9.66 5 10.32 5 11 5 C9.45454854 10.47932789 6.84456788 15.11429181 4 20 C2.8828125 16.28125 2.8828125 16.28125 3.9375 13.75 C4.288125 13.1725 4.63875 12.595 5 12 C2.09399739 10.74335022 0.20395416 10 -3 10 C-3.66 11.65 -4.32 13.3 -5 15 C-5.66 15 -6.32 15 -7 15 C-6.42176904 10.93774452 -5.10882263 8.15237654 -2.9375 4.6875 C-2.38964844 3.80449219 -1.84179688 2.92148437 -1.27734375 2.01171875 C-0.64505859 1.01591797 -0.64505859 1.01591797 0 0 Z " fill="#4E4D50" transform="translate(171,377)"/>
<path d="M0 0 C4.94515667 2.62711448 8.87775489 6.26645294 13 10 C12.01 10.495 12.01 10.495 11 11 C8.375 9.5625 8.375 9.5625 6 8 C3.22999175 11.32086771 3.22999175 11.32086771 1 15 C1.639375 15.268125 2.27875 15.53625 2.9375 15.8125 C5 17 5 17 6 20 C2.52224821 18.48446596 0.0442016 16.4226544 -2.75 13.875 C-3.54921875 13.15054687 -4.3484375 12.42609375 -5.171875 11.6796875 C-5.77515625 11.12539063 -6.3784375 10.57109375 -7 10 C-6.67 9.34 -6.34 8.68 -6 8 C-4.68 8.99 -3.36 9.98 -2 11 C0.51570636 10.02617818 1.73944098 9.53848865 2.9375 7.0625 C3.23881671 4.89615677 3.23881671 4.89615677 1.5625 3.375 C1.046875 2.92125 0.53125 2.4675 0 2 C0 1.34 0 0.68 0 0 Z " fill="#494853" transform="translate(369,336)"/>
<path d="M0 0 C0.66 0 1.32 0 2 0 C2.33 0.66 2.66 1.32 3 2 C4.88263881 2.90343684 4.88263881 2.90343684 7.0625 3.625 C7.79597656 3.88539063 8.52945313 4.14578125 9.28515625 4.4140625 C10.13400391 4.70410156 10.13400391 4.70410156 11 5 C11 5.66 11 6.32 11 7 C10.34 7 9.68 7 9 7 C9.33 8.32 9.66 9.64 10 11 C6.7 10.34 3.4 9.68 0 9 C-0.95904856 5.16380575 -0.91892116 3.67568464 0 0 Z " fill="#F6F8F6" transform="translate(90,202)"/>
<path d="M0 0 C4.99472507 0.28541286 7.44211087 2.7730773 11 6 C10.67 7.65 10.34 9.3 10 11 C6.82055924 10.31308379 3.88294753 9.52843653 1 8 C-0.43817505 5.57610946 -0.6230546 3.85401514 -1 1 C-0.67 0.67 -0.34 0.34 0 0 Z " fill="#484144" transform="translate(338,111)"/>
<path d="M0 0 C0.66 0.33 1.32 0.66 2 1 C1.67 2.32 1.34 3.64 1 5 C2.28813342 5.83878455 3.58063256 6.67086783 4.875 7.5 C5.59429687 7.9640625 6.31359375 8.428125 7.0546875 8.90625 C8.91860466 10.16336501 8.91860466 10.16336501 11 10 C12.62514468 8.54166642 12.62514468 8.54166642 14 7 C14 10.41321235 13.33132534 11.39472885 11.5 14.1875 C11.0359375 14.90292969 10.571875 15.61835938 10.09375 16.35546875 C9.7328125 16.89816406 9.371875 17.44085938 9 18 C8.67 17.01 8.34 16.02 8 15 C8.33 14.34 8.66 13.68 9 13 C7.73461631 12.15841464 6.46246221 11.32700252 5.1875 10.5 C4.47980469 10.0359375 3.77210938 9.571875 3.04296875 9.09375 C0.94541876 7.76400625 0.94541876 7.76400625 -2 8 C-2.33 8.66 -2.66 9.32 -3 10 C-3.66 10 -4.32 10 -5 10 C-3.84414715 6.08788267 -2.64465038 3.1254959 0 0 Z " fill="#474A57" transform="translate(381,317)"/>
<path d="M0 0 C1.4540625 0.0309375 1.4540625 0.0309375 2.9375 0.0625 C2.9375 3.3625 2.9375 6.6625 2.9375 10.0625 C0.6275 10.0625 -1.6825 10.0625 -4.0625 10.0625 C-4.08939216 8.58343108 -4.10884621 7.10422517 -4.125 5.625 C-4.13660156 4.80128906 -4.14820313 3.97757812 -4.16015625 3.12890625 C-4.00103255 -0.23815127 -3.43619093 0.07012635 0 0 Z " fill="#D6D9E5" transform="translate(271.0625,91.9375)"/>
<path d="M0 0 C0 0.66 0 1.32 0 2 C-1.32 2 -2.64 2 -4 2 C-3.01 5.96 -2.02 9.92 -1 14 C0.65 14 2.3 14 4 14 C4 14.66 4 15.32 4 16 C2.73160474 16.50615298 1.46016898 17.00469099 0.1875 17.5 C-0.52019531 17.7784375 -1.22789062 18.056875 -1.95703125 18.34375 C-4 19 -4 19 -7 19 C-7 18.34 -7 17.68 -7 17 C-5.68 16.67 -4.36 16.34 -3 16 C-3.99 12.37 -4.98 8.74 -6 5 C-7.65 4.67 -9.3 4.34 -11 4 C-11 3.34 -11 2.68 -11 2 C-7.12315913 0.80712589 -4.08378077 0 0 0 Z " fill="#4B4E58" transform="translate(295,389)"/>
<path d="M0 0 C3.36720387 1.39332574 4.9859524 2.9789286 7 6 C6.1875 7.9375 6.1875 7.9375 5 10 C4.01 10.33 3.02 10.66 2 11 C0.02 8.36 -1.96 5.72 -4 3 C-2.68 2.01 -1.36 1.02 0 0 Z " fill="#EBEBED" transform="translate(153,125)"/>
<path d="M0 0 C2.01822917 0.06510417 4.03645833 0.13020833 6.0546875 0.1953125 C6.0546875 0.8553125 6.0546875 1.5153125 6.0546875 2.1953125 C4.0746875 2.8553125 2.0946875 3.5153125 0.0546875 4.1953125 C0.0546875 8.1553125 0.0546875 12.1153125 0.0546875 16.1953125 C-1.2653125 15.8653125 -2.5853125 15.5353125 -3.9453125 15.1953125 C-3.99917879 13.07058674 -4.03804321 10.94547598 -4.0703125 8.8203125 C-4.09351563 7.63695313 -4.11671875 6.45359375 -4.140625 5.234375 C-3.92528319 1.88365638 -3.56503166 0.35793491 0 0 Z " fill="#40383A" transform="translate(267.9453125,88.8046875)"/>
<path d="M0 0 C0.33 0 0.66 0 1 0 C2.2073828 15.78221799 1.87405578 31.20456348 1 47 C0.67 47 0.34 47 0 47 C-0.19652332 42.56285102 -0.38067922 38.12527385 -0.5625 33.6875 C-0.61857422 32.42486328 -0.67464844 31.16222656 -0.73242188 29.86132812 C-0.78076172 28.65283203 -0.82910156 27.44433594 -0.87890625 26.19921875 C-0.9260376 25.08377686 -0.97316895 23.96833496 -1.02172852 22.8190918 C-1 20 -1 20 0 17 C0.07973476 15.66474283 0.10771338 14.32587917 0.09765625 12.98828125 C0.09443359 12.23095703 0.09121094 11.47363281 0.08789062 10.69335938 C0.07532227 9.51483398 0.07532227 9.51483398 0.0625 8.3125 C0.05798828 7.51521484 0.05347656 6.71792969 0.04882812 5.89648438 C0.0370585 3.93095743 0.01912348 1.96546915 0 0 Z " fill="#CCD9F1" transform="translate(441,226)"/>
<path d="M0 0 C1.84276141 0.55282842 3.67482878 1.14160959 5.5 1.75 C5.5 2.41 5.5 3.07 5.5 3.75 C4.736875 4.018125 3.97375 4.28625 3.1875 4.5625 C0.62619116 5.69424112 -0.69692938 6.66223401 -2.5 8.75 C-3.82 8.09 -5.14 7.43 -6.5 6.75 C-6.10000283 4.43001641 -5.59432121 2.88676576 -4.25 0.9375 C-2.5 -0.25 -2.5 -0.25 0 0 Z " fill="#CED3E4" transform="translate(354.5,356.25)"/>
<path d="M0 0 C4.53287116 3.73295272 8.37382288 7.38486548 12 12 C10.35 11.67 8.7 11.34 7 11 C7 10.01 7 9.02 7 8 C5.88625 8.350625 4.7725 8.70125 3.625 9.0625 C0 10 0 10 -2 9 C-1.34 6.03 -0.68 3.06 0 0 Z " fill="#D3DCEE" transform="translate(322,238)"/>
<path d="M0 0 C1.65 0.33 3.3 0.66 5 1 C4.01 1.495 4.01 1.495 3 2 C3.3403125 2.86625 3.3403125 2.86625 3.6875 3.75 C4 6 4 6 2.5625 8.25 C2.046875 8.8275 1.53125 9.405 1 10 C0.01 9.67 -0.98 9.34 -2 9 C-2 8.34 -2 7.68 -2 7 C-2.99 6.67 -3.98 6.34 -5 6 C-3.35 4.02 -1.7 2.04 0 0 Z " fill="#504A47" transform="translate(117,157)"/>
<path d="M0 0 C0.33 0 0.66 0 1 0 C1.66 2.64 2.32 5.28 3 8 C5.43717258 7.72965366 5.43717258 7.72965366 8 7 C8.66 6.01 9.32 5.02 10 4 C10.66 4.33 11.32 4.66 12 5 C11.375 6.8125 11.375 6.8125 10 9 C9.01 9.45375 8.02 9.9075 7 10.375 C3.71650052 11.75343241 3.71650052 11.75343241 2.625 15.1875 C2.41875 16.115625 2.2125 17.04375 2 18 C1.34 18 0.68 18 0 18 C0.20625 16.7625 0.4125 15.525 0.625 14.25 C1.0749434 10.74290693 0.80577048 9.08043199 -1 6 C-1.1875 3.3125 -1.1875 3.3125 -1 1 C-0.67 0.67 -0.34 0.34 0 0 Z " fill="#4A494D" transform="translate(192,386)"/>
<path d="M0 0 C2.125 0.375 2.125 0.375 4 1 C4 5 4 5 2.8125 6.8125 C1 8 1 8 -1.4375 7.875 C-4.1141477 6.96102274 -5.85796542 5.82469613 -8 4 C-6.576875 3.566875 -6.576875 3.566875 -5.125 3.125 C-1.94788422 2.23174891 -1.94788422 2.23174891 0 0 Z " fill="#CBD3E6" transform="translate(357,362)"/>
<path d="M0 0 C0.66 0.33 1.32 0.66 2 1 C2 3.97 2 6.94 2 10 C1.34 10 0.68 10 0 10 C-0.33 11.98 -0.66 13.96 -1 16 C-3.50009087 13.49990913 -3.29712739 12.5787141 -3.3125 9.125 C-3.32925781 8.26132813 -3.34601563 7.39765625 -3.36328125 6.5078125 C-2.93757021 3.56903308 -1.94053466 2.20166201 0 0 Z " fill="#3E302C" transform="translate(253,247)"/>
<path d="M0 0 C2.31 0.33 4.62 0.66 7 1 C7.66 2.65 8.32 4.3 9 6 C7 8 7 8 4.375 8.125 C3.59125 8.08375 2.8075 8.0425 2 8 C2 7.01 2 6.02 2 5 C1.01 4.34 0.02 3.68 -1 3 C-0.67 2.01 -0.34 1.02 0 0 Z " fill="#504648" transform="translate(293,96)"/>
<path d="M0 0 C2 0 2 0 3.5 1.375 C3.995 1.91125 4.49 2.4475 5 3 C5.66 3.66 6.32 4.32 7 5 C9.10820797 4.6814823 9.10820797 4.6814823 11 4 C11.33 4.99 11.66 5.98 12 7 C11.01 8.485 11.01 8.485 10 10 C5.89041233 8.54955729 2.56741255 6.48889248 -1 4 C-0.67 2.68 -0.34 1.36 0 0 Z " fill="#D3DAF2" transform="translate(382,318)"/>
<path d="M0 0 C2.8125 0.1875 2.8125 0.1875 6 1 C7.875 3.5625 7.875 3.5625 9 6 C6.94766315 8.2477975 5.99332739 9.0022242 3 10 C2.01 8.35 1.02 6.7 0 5 C1.32 5.33 2.64 5.66 4 6 C3.67 5.34 3.34 4.68 3 4 C2.01 3.67 1.02 3.34 0 3 C0 2.01 0 1.02 0 0 Z " fill="#D2DBF4" transform="translate(398,307)"/>
<path d="M0 0 C-0.0625 1.8125 -0.0625 1.8125 -1 4 C-4.5 5.5 -4.5 5.5 -8 7 C-9.04289755 9.06890419 -9.04289755 9.06890419 -9 11 C-10.5 9.6875 -10.5 9.6875 -12 8 C-12 7.01 -12 6.02 -12 5 C-10.56705502 4.15885829 -9.12845595 3.32734313 -7.6875 2.5 C-6.88699219 2.0359375 -6.08648437 1.571875 -5.26171875 1.09375 C-3 0 -3 0 0 0 Z " fill="#4B4342" transform="translate(178,107)"/>
<path d="M0 0 C2.64 0 5.28 0 8 0 C8 0.99 8 1.98 8 3 C7.01 3 6.02 3 5 3 C5 4.65 5 6.3 5 8 C5.99 8.33 6.98 8.66 8 9 C8 9.66 8 10.32 8 11 C6.35 11.33 4.7 11.66 3 12 C2.855625 11.0925 2.71125 10.185 2.5625 9.25 C1.74482638 4.47393787 1.74482638 4.47393787 0 0 Z M-1 10 C2 11 2 11 2 11 Z " fill="#F3F7F6" transform="translate(103,211)"/>
<path d="M0 0 C1.65 0 3.3 0 5 0 C5.66 1.65 6.32 3.3 7 5 C8.32 4.67 9.64 4.34 11 4 C9.68 6.97 8.36 9.94 7 13 C6.67 13 6.34 13 6 13 C6 11.02 6 9.04 6 7 C5.360625 6.731875 4.72125 6.46375 4.0625 6.1875 C2 5 2 5 1 2 C1 2.99 1 3.98 1 5 C0.34 4.67 -0.32 4.34 -1 4 C-0.67 2.68 -0.34 1.36 0 0 Z " fill="#D8E6FC" transform="translate(324,112)"/>
<path d="M0 0 C0.66 0 1.32 0 2 0 C1.65370506 8.25913426 1.65370506 8.25913426 -0.875 11.125 C-3 12 -3 12 -6 11 C-4.54997977 6.89160936 -2.6020866 3.49655387 0 0 Z " fill="#443735" transform="translate(322,262)"/>
<path d="M0 0 C-0.33 2.97 -0.66 5.94 -1 9 C-1.33 9 -1.66 9 -2 9 C-2 7.02 -2 5.04 -2 3 C-5.63 3.33 -9.26 3.66 -13 4 C-13 3.01 -13 2.02 -13 1 C-8.61414671 0.29826347 -4.44209357 -0.10834375 0 0 Z " fill="#65646D" transform="translate(273,394)"/>
<path d="M0 0 C1.64767247 0.28109113 3.29313145 0.57518526 4.9375 0.875 C5.85402344 1.03742188 6.77054687 1.19984375 7.71484375 1.3671875 C8.46894531 1.57601563 9.22304688 1.78484375 10 2 C10.33 2.66 10.66 3.32 11 4 C9.02 4.33 7.04 4.66 5 5 C5.33 6.65 5.66 8.3 6 10 C5.01 10.495 5.01 10.495 4 11 C3.32880451 9.5437455 2.66318193 8.08492133 2 6.625 C1.62875 5.81289063 1.2575 5.00078125 0.875 4.1640625 C0 2 0 2 0 0 Z " fill="#D2D6E2" transform="translate(308,386)"/>
<path d="M0 0 C1.98 0.99 3.96 1.98 6 3 C5.67 2.34 5.34 1.68 5 1 C6.32 0.67 7.64 0.34 9 0 C9 1.98 9 3.96 9 6 C8.01 6.495 8.01 6.495 7 7 C7 6.34 7 5.68 7 5 C4.03 5 1.06 5 -2 5 C-2 5.66 -2 6.32 -2 7 C-2.99 7.33 -3.98 7.66 -5 8 C-3.8141763 4.62496331 -2.72426311 2.35277269 0 0 Z " fill="#CCD5E8" transform="translate(375,343)"/>
<path d="M0 0 C0 3.99904969 -1.72586967 5.80200422 -4 9 C-3.01 9 -2.02 9 -1 9 C-1.66 10.32 -2.32 11.64 -3 13 C-3.99 13 -4.98 13 -6 13 C-6.33 12.01 -6.66 11.02 -7 10 C-7.99 10 -8.98 10 -10 10 C-6.7 6.7 -3.4 3.4 0 0 Z " fill="#50474A" transform="translate(320,264)"/>
<path d="M0 0 C0.66 0.33 1.32 0.66 2 1 C2 2.32 2 3.64 2 5 C5.08809695 6.76462683 6.23312136 7 10 7 C9.67 8.32 9.34 9.64 9 11 C7.35 11.33 5.7 11.66 4 12 C3.67 10.68 3.34 9.36 3 8 C1.68 7.67 0.36 7.34 -1 7 C-0.67 4.69 -0.34 2.38 0 0 Z " fill="#403330" transform="translate(337,113)"/>
<path d="M0 0 C1.32 0 2.64 0 4 0 C5.85131483 3.92857754 6.22004943 6.98775112 6.125 11.3125 C6.10695312 12.38113281 6.08890625 13.44976562 6.0703125 14.55078125 C6.03550781 15.76314453 6.03550781 15.76314453 6 17 C5.67 17 5.34 17 5 17 C4.67 15.02 4.34 13.04 4 11 C3.67 11 3.34 11 3 11 C2.01 7.37 1.02 3.74 0 0 Z " fill="#5A5151" transform="translate(198,97)"/>
<path d="M0 0 C0.33 0.66 0.66 1.32 1 2 C-0.21484375 4.3828125 -0.21484375 4.3828125 -1.9375 7.125 C-2.50339844 8.03507812 -3.06929688 8.94515625 -3.65234375 9.8828125 C-4.09707031 10.58148438 -4.54179687 11.28015625 -5 12 C-7.62386487 8.93882432 -8 8.26826873 -8 4 C-7.05125 3.896875 -6.1025 3.79375 -5.125 3.6875 C-1.70892499 3.31460705 -1.70892499 3.31460705 0 0 Z " fill="#D2DDF6" transform="translate(417,342)"/>
<path d="M0 0 C4.71875 -0.234375 4.71875 -0.234375 7.25 1.875 C9 4 9 4 10 6 C9.34 6 8.68 6 8 6 C8.33 7.32 8.66 8.64 9 10 C5.33838422 8.77946141 4.83729526 7.63217696 2.8125 4.4375 C2.28269531 3.61121094 1.75289062 2.78492188 1.20703125 1.93359375 C0.80871094 1.29550781 0.41039062 0.65742188 0 0 Z " fill="#4B4643" transform="translate(147,131)"/>
<path d="M0 0 C1.66611905 -0.042721 3.33382885 -0.04063832 5 0 C6 1 6 1 6.09765625 2.84765625 C6.06510417 4.8984375 6.03255208 6.94921875 6 9 C2.83884224 7.63016497 2.0072908 7.0109362 0 4 C0 2.68 0 1.36 0 0 Z " fill="#EBECF4" transform="translate(194,102)"/>
<path d="M0 0 C0.33 1.32 0.66 2.64 1 4 C2.32 4.33 3.64 4.66 5 5 C2.69 6.98 0.38 8.96 -2 11 C-2 9.02 -2 7.04 -2 5 C-2.66 4.67 -3.32 4.34 -4 4 C-2.68 2.68 -1.36 1.36 0 0 Z " fill="#4C4243" transform="translate(333,251)"/>
<path d="M0 0 C0 1.32 0 2.64 0 4 C-2.64 4.33 -5.28 4.66 -8 5 C-8.33 5.99 -8.66 6.98 -9 8 C-9 5.69 -9 3.38 -9 1 C-5.846632 0.29925156 -3.27275026 0 0 0 Z " fill="#554B4B" transform="translate(227,97)"/>
<path d="M0 0 C1.75 0.875 1.75 0.875 2.75 2.875 C1.6053125 2.7821875 1.6053125 2.7821875 0.4375 2.6875 C-2.25107239 2.65207618 -2.25107239 2.65207618 -4.125 4.125 C-5.4572023 5.81858494 -5.4572023 5.81858494 -5.125 7.9375 C-4.29747907 10.2261243 -4.29747907 10.2261243 -1.25 11.875 C-3.625 12 -3.625 12 -6.25 11.875 C-6.91 11.215 -7.57 10.555 -8.25 9.875 C-8.16445192 5.93978831 -7.67158726 4.31937576 -4.9375 1.4375 C-2.25 -0.125 -2.25 -0.125 0 0 Z " fill="#3F4651" transform="translate(354.25,354.125)"/>
<path d="M0 0 C0 1.32 0 2.64 0 4 C-0.66 4 -1.32 4 -2 4 C-2 4.66 -2 5.32 -2 6 C-4.88437779 4.70700306 -6.87219421 3.34058637 -9 1 C-3.375 -1.125 -3.375 -1.125 0 0 Z " fill="#F2F6F7" transform="translate(128,155)"/>
<path d="M0 0 C0 0.99 0 1.98 0 3 C-3.9813783 4.3271261 -7.85045227 4.06915913 -12 4 C-11.67 3.01 -11.34 2.02 -11 1 C-7.27569643 0.30710631 -3.78916254 -0.11144596 0 0 Z " fill="#3E3633" transform="translate(229,104)"/>
<path d="M0 0 C0 3 0 3 -2.40625 5.69921875 C-3.4299968 6.70302243 -4.4616054 7.69885649 -5.5 8.6875 C-6.02464844 9.19861328 -6.54929687 9.70972656 -7.08984375 10.23632812 C-8.38660904 11.49772708 -9.69246117 12.74977212 -11 14 C-11.33 13.01 -11.66 12.02 -12 11 C-11 10 -10 9 -9 8 C-8.195625 7.175 -7.39125 6.35 -6.5625 5.5 C-4.45708954 3.44594102 -2.39843818 1.68778983 0 0 Z " fill="#D2DDF4" transform="translate(392,376)"/>
<path d="M0 0 C2.475 0.99 2.475 0.99 5 2 C5.33 1.34 5.66 0.68 6 0 C9.465 1.485 9.465 1.485 13 3 C12.67 3.99 12.34 4.98 12 6 C7.61110675 5.33501617 4.0188515 3.81242323 0 2 C0 1.34 0 0.68 0 0 Z " fill="#4A4347" transform="translate(309,113)"/>
<path d="M0 0 C1.125 1.75 1.125 1.75 2 4 C1.125 6.25 1.125 6.25 0 8 C-1.65 7.67 -3.3 7.34 -5 7 C-3.75023244 3.34683329 -3.32901247 2.21934164 0 0 Z " fill="#443431" transform="translate(313,273)"/>
<path d="M0 0 C0.721875 0.144375 1.44375 0.28875 2.1875 0.4375 C3.5796875 0.7159375 3.5796875 0.7159375 5 1 C6.66666667 1.33333333 8.33333333 1.66666667 10 2 C10 2.66 10 3.32 10 4 C8.4375 5.1875 8.4375 5.1875 6 6 C2.25 4.625 2.25 4.625 -1 3 C-0.67 2.01 -0.34 1.02 0 0 Z " fill="#D1D4E6" transform="translate(317,104)"/>
<path d="M0 0 C0.66 0 1.32 0 2 0 C3.32 3.63 4.64 7.26 6 11 C1.4779393 8.73896965 0.77479871 7.57711247 -1 3 C-0.67 2.01 -0.34 1.02 0 0 Z " fill="#413D3C" transform="translate(190,100)"/>
<path d="M0 0 C2 3.875 2 3.875 2 5 C-1.3 5.33 -4.6 5.66 -8 6 C-8 5.01 -8 4.02 -8 3 C-5.36 2.67 -2.72 2.34 0 2 C0 1.34 0 0.68 0 0 Z " fill="#DCE0E8" transform="translate(227,99)"/>
<path d="M0 0 C0.66 0.33 1.32 0.66 2 1 C2 1.66 2 2.32 2 3 C1.34 3 0.68 3 0 3 C0 4.65 0 6.3 0 8 C-1.32 8.33 -2.64 8.66 -4 9 C-4.66 8.01 -5.32 7.02 -6 6 C-4.02 4.02 -2.04 2.04 0 0 Z " fill="#DBE5F9" transform="translate(340,253)"/>
<path d="M0 0 C0.99 0 1.98 0 3 0 C1.4169423 4.2742558 -1.50568404 6.26531794 -5 9 C-5.33 8.34 -5.66 7.68 -6 7 C-5.0625 4.875 -5.0625 4.875 -4 3 C-3.34 3 -2.68 3 -2 3 C-1.67 2.34 -1.34 1.68 -1 1 C-0.67 0.67 -0.34 0.34 0 0 Z " fill="#DAE1EA" transform="translate(201,209)"/>
<path d="M0 0 C0.99 0 1.98 0 3 0 C3 0.66 3 1.32 3 2 C4.98 1.67 6.96 1.34 9 1 C9 2.32 9 3.64 9 5 C8.01 5.66 7.02 6.32 6 7 C4.02 4.69 2.04 2.38 0 0 Z " fill="#413A38" transform="translate(202,288)"/>
<path d="M0 0 C0.99 0.66 1.98 1.32 3 2 C1.25 7.75 1.25 7.75 -1 10 C-1.91058531 6.92677456 -2.08886184 4.19902639 -2 1 C-1.34 0.67 -0.68 0.34 0 0 Z " fill="#EDEEEF" transform="translate(100,176)"/>
<path d="M0 0 C0.53625 0.391875 1.0725 0.78375 1.625 1.1875 C-1.28903262 3.13018841 -4.23308576 4.65145304 -7.375 6.1875 C-7.705 4.8675 -8.035 3.5475 -8.375 2.1875 C-2.95961538 -1.0125 -2.95961538 -1.0125 0 0 Z " fill="#E1DFE2" transform="translate(182.375,116.8125)"/>
<path d="M0 0 C3.40312738 1.05875074 6.01353231 2.00902154 9 4 C8.67 4.66 8.34 5.32 8 6 C5.66666667 6 3.33333333 6 1 6 C0.34 4.35 -0.32 2.7 -1 1 C-0.67 0.67 -0.34 0.34 0 0 Z " fill="#D8E3F7" transform="translate(337,80)"/>
<path d="M0 0 C1.9375 1.5625 1.9375 1.5625 3 3 C2.67 3.66 2.34 4.32 2 5 C1.45730469 4.7834375 0.91460937 4.566875 0.35546875 4.34375 C-0.35996094 4.0653125 -1.07539063 3.786875 -1.8125 3.5 C-2.52019531 3.2215625 -3.22789062 2.943125 -3.95703125 2.65625 C-6.11841216 1.8470838 -6.11841216 1.8470838 -9 2 C-9.33 1.34 -9.66 0.68 -10 0 C-6.22941703 -1.25686099 -3.86146303 -0.82745636 0 0 Z " fill="#CCD4E8" transform="translate(398,294)"/>
<path d="M0 0 C-0.66 3.63 -1.32 7.26 -2 11 C-2.66 10.67 -3.32 10.34 -4 10 C-4.8125 7.1875 -4.8125 7.1875 -5 4 C-2.78947368 0 -2.78947368 0 0 0 Z " fill="#DCDEE7" transform="translate(255,229)"/>
<path d="M0 0 C1.32 0 2.64 0 4 0 C4.33 0.66 4.66 1.32 5 2 C5.99 2 6.98 2 8 2 C7 5 7 5 5.1875 5.9375 C3 6 3 6 0.75 4.0625 C0.1725 3.381875 -0.405 2.70125 -1 2 C-0.67 1.34 -0.34 0.68 0 0 Z " fill="#4C4240" transform="translate(111,164)"/>
<path d="M0 0 C0.99 0.33 1.98 0.66 3 1 C3.33 3.97 3.66 6.94 4 10 C3.01 10 2.02 10 1 10 C1.33 8.35 1.66 6.7 2 5 C0.68 5.33 -0.64 5.66 -2 6 C-2 3 -2 3 0 0 Z " fill="#D0D3E3" transform="translate(336,121)"/>
<path d="M0 0 C3.36591866 1.44253657 5.51047079 3.33264727 8 6 C6.35 6.66 4.7 7.32 3 8 C2.87625 7.360625 2.7525 6.72125 2.625 6.0625 C2.315625 5.0415625 2.315625 5.0415625 2 4 C1.34 3.67 0.68 3.34 0 3 C0 2.01 0 1.02 0 0 Z " fill="#D4E1F7" transform="translate(361,94)"/>
<path d="M0 0 C2.6875 0.3125 2.6875 0.3125 5 1 C4.34 3.31 3.68 5.62 3 8 C1.02 6.35 -0.96 4.7 -3 3 C-1.8125 1.4375 -1.8125 1.4375 0 0 Z " fill="#D5DEEF" transform="translate(307,209)"/>
<path d="M0 0 C0.99 0 1.98 0 3 0 C1.90931332 3.77545388 1.0916909 6.47043472 -2 9 C-2 8.01 -2 7.02 -2 6 C-2.99 6.495 -2.99 6.495 -4 7 C-2.92598892 4.08482708 -2.22189824 2.22189824 0 0 Z " fill="#CEDDF5" transform="translate(420,333)"/>
<path d="M0 0 C0.66 0 1.32 0 2 0 C1.01 5.28 0.02 10.56 -1 16 C-1.33 16 -1.66 16 -2 16 C-2.05449838 14.27119018 -2.09301688 12.54187288 -2.125 10.8125 C-2.14820313 9.84957031 -2.17140625 8.88664062 -2.1953125 7.89453125 C-1.9913544 4.87187222 -1.26874632 2.73230015 0 0 Z " fill="#D7D9E1" transform="translate(237,304)"/>
<path d="M0 0 C0.99 0.33 1.98 0.66 3 1 C2.67 1.99 2.34 2.98 2 4 C0.125 4.5625 0.125 4.5625 -2 5 C-2.99 5.66 -3.98 6.32 -5 7 C-6.32 7 -7.64 7 -9 7 C-9 6.34 -9 5.68 -9 5 C-8.071875 4.731875 -7.14375 4.46375 -6.1875 4.1875 C-3.23759634 3.08851629 -1.94384814 2.37581439 0 0 Z " fill="#F7F9FA" transform="translate(108,196)"/>
<path d="M0 0 C3.57416264 0.49641148 6.69252492 1.58251068 10 3 C10 3.66 10 4.32 10 5 C9.01 5 8.02 5 7 5 C7 4.34 7 3.68 7 3 C5.02 3.99 5.02 3.99 3 5 C1.68 3.68 0.36 2.36 -1 1 C-0.67 0.67 -0.34 0.34 0 0 Z " fill="#D8E1F1" transform="translate(308,115)"/>
<path d="M0 0 C0.66 0.66 1.32 1.32 2 2 C4.58354218 2.16687448 4.58354218 2.16687448 7 2 C7 2.66 7 3.32 7 4 C5.73160474 4.50615298 4.46016898 5.00469099 3.1875 5.5 C2.12595703 5.91765625 2.12595703 5.91765625 1.04296875 6.34375 C-1 7 -1 7 -4 7 C-4 6.34 -4 5.68 -4 5 C-2.68 4.67 -1.36 4.34 0 4 C0 2.68 0 1.36 0 0 Z " fill="#454850" transform="translate(292,401)"/>
<path d="M0 0 C5.94 2.475 5.94 2.475 12 5 C12 5.66 12 6.32 12 7 C7.27934033 5.45730076 2.58335908 3.92205381 -2 2 C-1.34 1.34 -0.68 0.68 0 0 Z " fill="#4B4F59" transform="translate(390,306)"/>
<path d="M0 0 C0.99 0.33 1.98 0.66 3 1 C2.49396008 3.16874252 2.00016187 4.99967627 1 7 C-0.32 6.67 -1.64 6.34 -3 6 C-1.125 1.125 -1.125 1.125 0 0 Z " fill="#453836" transform="translate(299,285)"/>
<path d="M0 0 C1.65 0.33 3.3 0.66 5 1 C5 1.66 5 2.32 5 3 C4.34 3 3.68 3 3 3 C3.33 4.32 3.66 5.64 4 7 C2.68 6.67 1.36 6.34 0 6 C0 5.34 0 4.68 0 4 C-0.66 3.67 -1.32 3.34 -2 3 C-1.34 2.01 -0.68 1.02 0 0 Z " fill="#F1F3EE" transform="translate(96,206)"/>
<path d="M0 0 C-0.33 1.65 -0.66 3.3 -1 5 C-2.32 5 -3.64 5 -5 5 C-5.33 3.68 -5.66 2.36 -6 1 C-3 0 -3 0 0 0 Z " fill="#D7DBEA" transform="translate(354,359)"/>
<path d="M0 0 C1.98 1.65 3.96 3.3 6 5 C5.67 5.99 5.34 6.98 5 8 C2.525 7.01 2.525 7.01 0 6 C0 4.02 0 2.04 0 0 Z " fill="#3D2F2B" transform="translate(173,252)"/>
<path d="M0 0 C1.32 0.33 2.64 0.66 4 1 C3.01 3.31 2.02 5.62 1 8 C0.01 7.67 -0.98 7.34 -2 7 C-1.125 2.25 -1.125 2.25 0 0 Z " fill="#E4E4DD" transform="translate(105,181)"/>
<path d="M0 0 C1.32 0.66 2.64 1.32 4 2 C4 4.31 4 6.62 4 9 C3.34 8.01 2.68 7.02 2 6 C1.34 6.66 0.68 7.32 0 8 C0 6.35 0 4.7 0 3 C-0.66 2.67 -1.32 2.34 -2 2 C-1.34 2 -0.68 2 0 2 C0 1.34 0 0.68 0 0 Z " fill="#575455" transform="translate(274,89)"/>
<path d="M0 0 C0.66 0 1.32 0 2 0 C2.12375 0.804375 2.2475 1.60875 2.375 2.4375 C2.684375 3.7059375 2.684375 3.7059375 3 5 C3.66 5.33 4.32 5.66 5 6 C4.34 7.32 3.68 8.64 3 10 C2.34 8.68 1.68 7.36 1 6 C0.01 6 -0.98 6 -2 6 C-1.125 1.125 -1.125 1.125 0 0 Z " fill="#E1E5EE" transform="translate(209,201)"/>
<path d="M0 0 C0.99 0.33 1.98 0.66 3 1 C2.125 5.75 2.125 5.75 1 8 C0.01 7.67 -0.98 7.34 -2 7 C-1.125 2.25 -1.125 2.25 0 0 Z " fill="#E6E3E0" transform="translate(111,184)"/>
<path d="M0 0 C0.86625 0.3403125 0.86625 0.3403125 1.75 0.6875 C0.1 2.3375 -1.55 3.9875 -3.25 5.6875 C-4.24 4.6975 -5.23 3.7075 -6.25 2.6875 C-2.80384615 -0.38942308 -2.80384615 -0.38942308 0 0 Z " fill="#4C4746" transform="translate(155.25,121.3125)"/>
<path d="M0 0 C0.99 0.33 1.98 0.66 3 1 C2.67 1.99 2.34 2.98 2 4 C-0.5625 5.1875 -0.5625 5.1875 -3 6 C-3.66 5.01 -4.32 4.02 -5 3 C-2.6875 1.4375 -2.6875 1.4375 0 0 Z " fill="#4B4545" transform="translate(178,113)"/>
<path d="M0 0 C-0.99 0.99 -1.98 1.98 -3 3 C-7.875 1.25 -7.875 1.25 -9 -1 C-5.22102349 -2.0497157 -3.35080929 -2.10976881 0 0 Z " fill="#CDD1E2" transform="translate(372,345)"/>
<path d="M0 0 C0.66 0.33 1.32 0.66 2 1 C1.9129995 2.62600941 1.8048219 4.25089678 1.6875 5.875 C1.62949219 6.77992188 1.57148438 7.68484375 1.51171875 8.6171875 C1 11 1 11 -2 13 C-1.48041715 8.62065881 -0.94324258 4.31196609 0 0 Z " fill="#D3D4DB" transform="translate(243,309)"/>
<path d="M0 0 C1.32 1.65 2.64 3.3 4 5 C3.67 5.66 3.34 6.32 3 7 C1.02 7 -0.96 7 -3 7 C-1.125 1.125 -1.125 1.125 0 0 Z " fill="#ECF4F9" transform="translate(163,248)"/>
<path d="M0 0 C0 2.64 0 5.28 0 8 C-1.32 7.67 -2.64 7.34 -4 7 C-3.625 4.0625 -3.625 4.0625 -3 1 C-1 0 -1 0 0 0 Z " fill="#3F3734" transform="translate(314,107)"/>
<path d="M0 0 C2.97 0.495 2.97 0.495 6 1 C6 1.99 6 2.98 6 4 C4.02 4 2.04 4 0 4 C0 2.68 0 1.36 0 0 Z " fill="#CFCFDB" transform="translate(293,96)"/>
<path d="M0 0 C3.44216672 2.6598561 3.99504674 5.90288286 5 10 C4.34 10 3.68 10 3 10 C2.566875 9.05125 2.13375 8.1025 1.6875 7.125 C0.20697799 3.79958063 0.20697799 3.79958063 -3 2 C-2.01 2 -1.02 2 0 2 C0 1.34 0 0.68 0 0 Z " fill="#45434B" transform="translate(318,385)"/>
<path d="M0 0 C0.598125 0.165 1.19625 0.33 1.8125 0.5 C4.11344336 1.1114124 4.11344336 1.1114124 7 1 C7 2.98 7 4.96 7 7 C5.83040013 6.02433888 4.66438823 5.044375 3.5 4.0625 C2.8503125 3.51722656 2.200625 2.97195312 1.53125 2.41015625 C1.0259375 1.94480469 0.520625 1.47945312 0 1 C0 0.67 0 0.34 0 0 Z " fill="#D1D8E7" transform="translate(328,235)"/>
<path d="M0 0 C2 3 2 3 1.625 5.1875 C1.41875 5.785625 1.2125 6.38375 1 7 C-0.98 5.35 -2.96 3.7 -5 2 C-4.360625 1.855625 -3.72125 1.71125 -3.0625 1.5625 C-1.02454854 1.18992819 -1.02454854 1.18992819 0 0 Z " fill="#D4DAEB" transform="translate(325,226)"/>
<path d="M0 0 C3.16115776 1.36983503 3.9927092 1.9890638 6 5 C5.01 5 4.02 5 3 5 C3 4.34 3 3.68 3 3 C2.01 3 1.02 3 0 3 C0 3.66 0 4.32 0 5 C-0.99 4.67 -1.98 4.34 -3 4 C-2.01 2.68 -1.02 1.36 0 0 Z " fill="#41393E" transform="translate(297,206)"/>
<path d="M0 0 C0 2.31 0 4.62 0 7 C-1.32 6.34 -2.64 5.68 -4 5 C-4 3.68 -4 2.36 -4 1 C-2 0 -2 0 0 0 Z " fill="#3E2F28" transform="translate(265,201)"/>
<path d="M0 0 C1.37562854 1.28965176 2.70766393 2.62689293 4 4 C4 4.66 4 5.32 4 6 C3.01 6 2.02 6 1 6 C0.67 6.99 0.34 7.98 0 9 C0 8.01 0 7.02 0 6 C-0.66 6 -1.32 6 -2 6 C-2 5.34 -2 4.68 -2 4 C-1.34 4 -0.68 4 0 4 C0 2.68 0 1.36 0 0 Z " fill="#D1DCF6" transform="translate(404,135)"/>
<path d="M0 0 C0.33 0 0.66 0 1 0 C1 2.97 1 5.94 1 9 C0.01 9 -0.98 9 -2 9 C-2.25 3.375 -2.25 3.375 0 0 Z " fill="#3C3331" transform="translate(276,94)"/>
<path d="M0 0 C0.66 0 1.32 0 2 0 C1.25 7.625 1.25 7.625 -1 11 C-1.02688151 9.35425434 -1.04634123 7.70838587 -1.0625 6.0625 C-1.07410156 5.14597656 -1.08570313 4.22945313 -1.09765625 3.28515625 C-1 1 -1 1 0 0 Z " fill="#CFDCF3" transform="translate(435,294)"/>
<path d="M0 0 C0.99 0 1.98 0 3 0 C3 0.66 3 1.32 3 2 C4.32 2.33 5.64 2.66 7 3 C7 3.99 7 4.98 7 6 C4.625 5.8125 4.625 5.8125 2 5 C0.6875 2.4375 0.6875 2.4375 0 0 Z " fill="#403331" transform="translate(105,189)"/>
<path d="M0 0 C0.99 0 1.98 0 3 0 C2.49396008 2.16874252 2.00016187 3.99967627 1 6 C-0.32 5.67 -1.64 5.34 -3 5 C-1.6875 2.5 -1.6875 2.5 0 0 Z " fill="#E3E3DD" transform="translate(123,165)"/>
<path d="M0 0 C1.65 0.99 3.3 1.98 5 3 C4.67 3.99 4.34 4.98 4 6 C2.02 5.01 0.04 4.02 -2 3 C-1.34 2.01 -0.68 1.02 0 0 Z " fill="#CED0DF" transform="translate(340,115)"/>
<path d="M0 0 C0.99 0.495 0.99 0.495 2 1 C3.67654729 0.72057545 5.34608154 0.39171753 7 0 C7.33 1.32 7.66 2.64 8 4 C6.824375 3.9690625 6.824375 3.9690625 5.625 3.9375 C3.01885039 3.81315937 3.01885039 3.81315937 1 5 C0.67 3.35 0.34 1.7 0 0 Z " fill="#E0E4EE" transform="translate(192,99)"/>
<path d="M0 0 C0 1.32 0 2.64 0 4 C-1.65 4.33 -3.3 4.66 -5 5 C-5.66 3.68 -6.32 2.36 -7 1 C-2.25 0 -2.25 0 0 0 Z " fill="#4F4E53" transform="translate(226,90)"/>
<path d="M0 0 C3.63 0.33 7.26 0.66 11 1 C11 1.33 11 1.66 11 2 C7.37 2.33 3.74 2.66 0 3 C0 2.01 0 1.02 0 0 Z " fill="#75757F" transform="translate(260,395)"/>
<path d="M0 0 C0.33 0.66 0.66 1.32 1 2 C1.99 2.33 2.98 2.66 4 3 C4 3.66 4 4.32 4 5 C5.32 5.66 6.64 6.32 8 7 C7.01 7.66 6.02 8.32 5 9 C2 5.25 2 5.25 2 3 C1.01 3 0.02 3 -1 3 C-0.67 2.01 -0.34 1.02 0 0 Z " fill="#D7E0F5" transform="translate(358,355)"/>
<path d="M0 0 C2.4375 0.75 2.4375 0.75 5 2 C5.8125 4.125 5.8125 4.125 6 6 C5.01 6 4.02 6 3 6 C0.8125 3.5 0.8125 3.5 -1 1 C-0.67 0.67 -0.34 0.34 0 0 Z " fill="#493A34" transform="translate(197,281)"/>
<path d="M0 0 C1.18234854 3.69483919 1.2804701 7.14353614 1 11 C-0.515625 12.71484375 -0.515625 12.71484375 -2 14 C-1.85866501 12.22880197 -1.71176792 10.45804713 -1.5625 8.6875 C-1.48128906 7.70136719 -1.40007812 6.71523437 -1.31640625 5.69921875 C-1 3 -1 3 0 0 Z " fill="#D9DBE5" transform="translate(260,232)"/>
<path d="M0 0 C2.64 0.33 5.28 0.66 8 1 C4.93882432 3.62386487 4.26826873 4 0 4 C0 2.68 0 1.36 0 0 Z " fill="#615C58" transform="translate(89,211)"/>
<path d="M0 0 C1.32 0 2.64 0 4 0 C4.33 1.32 4.66 2.64 5 4 C5.66 4 6.32 4 7 4 C6.67 4.99 6.34 5.98 6 7 C3 6 3 6 1.3125 2.9375 C0.879375 1.968125 0.44625 0.99875 0 0 Z " fill="#F3F6F9" transform="translate(127,161)"/>
<path d="M0 0 C2.475 0.495 2.475 0.495 5 1 C4.6875 2.9375 4.6875 2.9375 4 5 C3.01 5.33 2.02 5.66 1 6 C0.67 4.02 0.34 2.04 0 0 Z " fill="#F1F5FA" transform="translate(147,137)"/>
<path d="M0 0 C3.465 1.98 3.465 1.98 7 4 C4 6 4 6 2 6 C0.375 3.5 0.375 3.5 -1 1 C-0.67 0.67 -0.34 0.34 0 0 Z " fill="#D5E0F6" transform="translate(354,89)"/>
<path d="M0 0 C0.66 0.33 1.32 0.66 2 1 C2 4.76687864 1.76462683 5.91190305 0 9 C-0.66 9 -1.32 9 -2 9 C-1.125 1.125 -1.125 1.125 0 0 Z " fill="#DEE1E7" transform="translate(196,397)"/>
<path d="M0 0 C0.99 0.33 1.98 0.66 3 1 C3.33 1.99 3.66 2.98 4 4 C3.01 4.33 2.02 4.66 1 5 C1 5.66 1 6.32 1 7 C0.01 6.67 -0.98 6.34 -2 6 C-1.67 5.38125 -1.34 4.7625 -1 4.125 C0.14193235 2.08981656 0.14193235 2.08981656 0 0 Z " fill="#CDD6EA" transform="translate(395,323)"/>
<path d="M0 0 C0.66 0.66 1.32 1.32 2 2 C-0.31 4.31 -2.62 6.62 -5 9 C-5.33 8.34 -5.66 7.68 -6 7 C-4.18705073 4.2805761 -2.33524782 2.25740623 0 0 Z " fill="#DEE5F4" transform="translate(329,252)"/>
<path d="M0 0 C1.32 1.32 2.64 2.64 4 4 C3.34 5.65 2.68 7.3 2 9 C0 7 0 7 -0.125 3.375 C-0.08375 2.26125 -0.0425 1.1475 0 0 Z " fill="#3E2F2C" transform="translate(256,226)"/>
<path d="M0 0 C0.99 0.66 1.98 1.32 3 2 C2.67 3.32 2.34 4.64 2 6 C0.35 5.67 -1.3 5.34 -3 5 C-3 4.34 -3 3.68 -3 3 C-2.01 3 -1.02 3 0 3 C0 2.01 0 1.02 0 0 Z " fill="#4E4541" transform="translate(103,212)"/>
<path d="M0 0 C3.12290635 0.48578543 5.99580359 0.9986012 9 2 C9 2.99 9 3.98 9 5 C6 4 3 3 0 2 C0 1.34 0 0.68 0 0 Z " fill="#E8EAE9" transform="translate(105,194)"/>
<path d="M0 0 C0.99 0.33 1.98 0.66 3 1 C1.515 3.475 1.515 3.475 0 6 C-0.99 5.67 -1.98 5.34 -3 5 C-2.01 3.35 -1.02 1.7 0 0 Z " fill="#F2EBE8" transform="translate(118,161)"/>
<path d="M0 0 C1.65 0.33 3.3 0.66 5 1 C5 2.32 5 3.64 5 5 C3.02 4.34 1.04 3.68 -1 3 C-0.67 2.01 -0.34 1.02 0 0 Z " fill="#CECFDD" transform="translate(314,110)"/>
<path d="M0 0 C2.31 0.66 4.62 1.32 7 2 C7 2.33 7 2.66 7 3 C6.05125 3.309375 5.1025 3.61875 4.125 3.9375 C1.13919592 4.87394742 1.13919592 4.87394742 -1 6 C-0.67 4.02 -0.34 2.04 0 0 Z " fill="#D2D3E0" transform="translate(291,102)"/>
<path d="M0 0 C3.625 0.375 3.625 0.375 7 1 C7.33 1.99 7.66 2.98 8 4 C4.7 3.34 1.4 2.68 -2 2 C-1.34 1.34 -0.68 0.68 0 0 Z " fill="#D5D7E2" transform="translate(292,90)"/>
<path d="M0 0 C2.02054804 1.64169528 4.02043058 3.30911778 6 5 C6 5.33 6 5.66 6 6 C4.02 6 2.04 6 0 6 C0 4.02 0 2.04 0 0 Z " fill="#DCE2ED" transform="translate(240,399)"/>
<path d="M0 0 C0.66 0.33 1.32 0.66 2 1 C0.02 2.98 -1.96 4.96 -4 7 C-4.66 6.67 -5.32 6.34 -6 6 C-6 5.34 -6 4.68 -6 4 C-4.03852126 2.61061923 -2.03833424 1.2739589 0 0 Z " fill="#E1E5F3" transform="translate(318,264)"/>
<path d="M0 0 C0.99 0.33 1.98 0.66 3 1 C3 2.98 3 4.96 3 7 C2.01 6.67 1.02 6.34 0 6 C0 4.02 0 2.04 0 0 Z " fill="#3A3B40" transform="translate(339,124)"/>
<path d="M0 0 C0.66 0 1.32 0 2 0 C1.67 2.97 1.34 5.94 1 9 C-1 6 -1 6 -0.625 2.8125 C-0.41875 1.884375 -0.2125 0.95625 0 0 Z " fill="#64666C" transform="translate(214,393)"/>
<path d="M0 0 C0.33 0 0.66 0 1 0 C1.33 1.98 1.66 3.96 2 6 C0.1875 6.625 0.1875 6.625 -2 7 C-2.99 6.34 -3.98 5.68 -5 5 C-4.360625 4.731875 -3.72125 4.46375 -3.0625 4.1875 C-0.66868314 3.11332248 -0.66868314 3.11332248 0 0 Z " fill="#D8DBE4" transform="translate(203,391)"/>
<path d="M0 0 C1.98 0 3.96 0 6 0 C6 0.99 6 1.98 6 3 C4.02 3 2.04 3 0 3 C0 2.01 0 1.02 0 0 Z " fill="#484141" transform="translate(234,325)"/>
<path d="M0 0 C0.66 0 1.32 0 2 0 C2.66 2.31 3.32 4.62 4 7 C2.35 6.01 0.7 5.02 -1 4 C-0.67 2.68 -0.34 1.36 0 0 Z " fill="#D1D5E8" transform="translate(382,318)"/>
<path d="M0 0 C1.9375 0.3125 1.9375 0.3125 4 1 C4.33 1.99 4.66 2.98 5 4 C2 5 2 5 -1 4 C-0.67 2.68 -0.34 1.36 0 0 Z " fill="#402E25" transform="translate(168,248)"/>
<path d="M0 0 C1.65 1.65 3.3 3.3 5 5 C4.01 5.99 3.02 6.98 2 8 C1.34 7.34 0.68 6.68 0 6 C0.33 5.34 0.66 4.68 1 4 C0.60061233 1.90178785 0.60061233 1.90178785 0 0 Z " fill="#D2DAEA" transform="translate(299,215)"/>
<path d="M0 0 C0.99 0.33 1.98 0.66 3 1 C1.68 3.64 0.36 6.28 -1 9 C-1.33 9 -1.66 9 -2 9 C-2 6.69 -2 4.38 -2 2 C-1.34 2 -0.68 2 0 2 C0 1.34 0 0.68 0 0 Z " fill="#D0D6E4" transform="translate(332,116)"/>
<path d="M0 0 C1.98 0.99 1.98 0.99 4 2 C4 3.65 4 5.3 4 7 C3.34 7 2.68 7 2 7 C0.5393715 4.35261084 0 3.10551666 0 0 Z " fill="#EBF3F5" transform="translate(164,114)"/>
<path d="M0 0 C1.32 0.33 2.64 0.66 4 1 C3.67 1.99 3.34 2.98 3 4 C0.9375 4.6875 0.9375 4.6875 -1 5 C-1.33 4.01 -1.66 3.02 -2 2 C-1.34 2 -0.68 2 0 2 C0 1.34 0 0.68 0 0 Z " fill="#EDF2F9" transform="translate(194,96)"/>
<path d="M0 0 C1.2065625 0.0309375 1.2065625 0.0309375 2.4375 0.0625 C2.1075 1.0525 1.7775 2.0425 1.4375 3.0625 C0.7775 2.7325 0.1175 2.4025 -0.5625 2.0625 C-1.2225 3.7125 -1.8825 5.3625 -2.5625 7.0625 C-2.8925 7.0625 -3.2225 7.0625 -3.5625 7.0625 C-3.60504356 5.06295254 -3.60330783 3.06208364 -3.5625 1.0625 C-2.5625 0.0625 -2.5625 0.0625 0 0 Z " fill="#E8EAF7" transform="translate(271.5625,92.9375)"/>
<path d="M0 0 C1.32 0 2.64 0 4 0 C3.6875 1.9375 3.6875 1.9375 3 4 C2.01 4.33 1.02 4.66 0 5 C0 3.35 0 1.7 0 0 Z " fill="#D3D5E2" transform="translate(291,391)"/>
<path d="M0 0 C1.32 0.99 2.64 1.98 4 3 C3.67 3.99 3.34 4.98 3 6 C1.68 5.34 0.36 4.68 -1 4 C-0.67 2.68 -0.34 1.36 0 0 Z " fill="#D3DFF5" transform="translate(369,338)"/>
<path d="M0 0 C0.99 0.33 1.98 0.66 3 1 C3.33 2.65 3.66 4.3 4 6 C3.01 5.67 2.02 5.34 1 5 C1.33 4.67 1.66 4.34 2 4 C1.01 3.67 0.02 3.34 -1 3 C-0.67 2.01 -0.34 1.02 0 0 Z " fill="#BCC6DE" transform="translate(403,297)"/>
<path d="M0 0 C0.66 0 1.32 0 2 0 C3.25541557 3.76624671 2.37061958 5.37188934 1 9 C0.34 8.67 -0.32 8.34 -1 8 C-0.67 5.36 -0.34 2.72 0 0 Z " fill="#49403F" transform="translate(241,291)"/>
<path d="M0 0 C0.33 0.66 0.66 1.32 1 2 C1.66 2 2.32 2 3 2 C2.67 3.32 2.34 4.64 2 6 C1.34 6 0.68 6 0 6 C-0.33 6.66 -0.66 7.32 -1 8 C-0.67 5.36 -0.34 2.72 0 0 Z " fill="#514749" transform="translate(243,282)"/>
<path d="M0 0 C0.99 0.66 1.98 1.32 3 2 C2.6875 3.875 2.6875 3.875 2 6 C1.01 6.66 0.02 7.32 -1 8 C-1 5.16032769 -0.59732819 2.76264289 0 0 Z " fill="#494142" transform="translate(209,206)"/>
<path d="M0 0 C0.99 0.66 1.98 1.32 3 2 C0.94766315 4.2477975 -0.00667261 5.0022242 -3 6 C-2.42655063 3.13275314 -2.1385485 2.1385485 0 0 Z " fill="#F4FBF9" transform="translate(109,177)"/>
<path d="M0 0 C1.65 1.65 3.3 3.3 5 5 C3.125 5.625 3.125 5.625 1 6 C0.34 5.34 -0.32 4.68 -1 4 C-0.625 1.875 -0.625 1.875 0 0 Z " fill="#D2DBF2" transform="translate(394,123)"/>
<path d="M0 0 C0.99 0 1.98 0 3 0 C5 2 5 2 5.125 4.625 C5.08375 5.40875 5.0425 6.1925 5 7 C3.29115995 5.37660195 1.62553283 3.70680947 0 2 C0 1.34 0 0.68 0 0 Z " fill="#E2E5E7" transform="translate(157,121)"/>
<path d="M0 0 C-0.99 1.485 -0.99 1.485 -2 3 C-4.625 3.1875 -4.625 3.1875 -7 3 C-7 2.01 -7 1.02 -7 0 C-2.25 -1.125 -2.25 -1.125 0 0 Z " fill="#E7E8EC" transform="translate(225,95)"/>
</svg>
